<svg version="1.1" xmlns="http://www.w3.org/2000/svg" xmlns:xlink="http://www.w3.org/1999/xlink" width="800.5" height="481.11046" viewBox="0,0,800.5,481.11046"><defs><linearGradient x1="-45.5" y1="180" x2="525.5" y2="180" gradientUnits="userSpaceOnUse" id="color-1"><stop offset="0" stop-color="#00fff0"/><stop offset="1" stop-color="#7b00ff"/></linearGradient><radialGradient cx="255.73989" cy="159.61513" r="83.90956" gradientUnits="userSpaceOnUse" id="color-2"><stop offset="0" stop-color="#ffff99"/><stop offset="1" stop-color="#ff9400"/></radialGradient><radialGradient cx="149.29147" cy="291.10723" r="231.70198" gradientUnits="userSpaceOnUse" id="color-3"><stop offset="0" stop-color="#009933"/><stop offset="1" stop-color="#00cc44"/></radialGradient></defs><g transform="translate(252,35.11046)"><g data-paper-data="{&quot;isPaintingLayer&quot;:true}" fill-rule="nonzero" stroke-linejoin="miter" stroke-miterlimit="10" stroke-dasharray="" stroke-dashoffset="0" style="mix-blend-mode: normal"><path d="M-45.5,386v-412h571v412z" fill="url(#color-1)" stroke="#000000" stroke-width="0.5" stroke-linecap="butt"/><text transform="translate(101.60125,132.76763) rotate(-9.80142) scale(2.41221,2.41221)" font-size="40" xml:space="preserve" fill="#ffffff" fill-rule="nonzero" stroke="none" stroke-width="1" stroke-linecap="butt" stroke-linejoin="miter" stroke-miterlimit="10" stroke-dasharray="" stroke-dashoffset="0" font-family="Pixel" font-weight="normal" text-anchor="start" style="mix-blend-mode: normal"><tspan x="0" dy="0">Pong!</tspan></text><path d="M191,180c0,-27.06195 21.93805,-49 49,-49c27.06195,0 49,21.93805 49,49c0,27.06195 -21.93805,49 -49,49c-27.06195,0 -49,-21.93805 -49,-49z" fill="url(#color-2)" stroke="none" stroke-width="1" stroke-linecap="butt"/><path d="M186.5,161l-125,50" fill="none" stroke="#ffffff" stroke-width="2.5" stroke-linecap="round"/><path d="M97.5,235l77,-37" fill="none" stroke="#ffffff" stroke-width="2.5" stroke-linecap="round"/><path d="M136.5,252l57,-33" fill="none" stroke="#ffffff" stroke-width="2.5" stroke-linecap="round"/><path d="M172.5,273l62,-41" fill="none" stroke="#ffffff" stroke-width="2" stroke-linecap="round"/><path d="M-60.21267,340.5h387.42534v25h-387.42534z" fill="#ff0000" stroke="#000000" stroke-width="0.5" stroke-linecap="butt"/><path d="M310.5,327c0,-65.72189 53.27811,-119 119,-119c65.72189,0 119,53.27811 119,119c0,65.72189 -53.27811,119 -119,119c-65.72189,0 -119,-53.27811 -119,-119z" fill="#9500ff" stroke="none" stroke-width="0" stroke-linecap="butt"/><path d="M-1.51988,208.56902l274.25867,125.42388l-12.54797,27.43807l-274.25867,-125.42388z" fill="#009933" stroke="url(#color-3)" stroke-width="6.32852" stroke-linecap="butt"/><path d="M-252,-24c0,-1.38071 1.11929,-2.5 2.5,-2.5c1.38071,0 2.5,1.11929 2.5,2.5c0,1.38071 -1.11929,2.5 -2.5,2.5c-1.38071,0 -2.5,-1.11929 -2.5,-2.5z" fill="#ff0000" stroke="none" stroke-width="0.5" stroke-linecap="butt"/><text transform="translate(354.5,269) scale(0.5,0.5)" font-size="40" xml:space="preserve" fill="#ffffff" fill-rule="nonzero" stroke="none" stroke-width="1" stroke-linecap="butt" stroke-linejoin="miter" stroke-miterlimit="10" stroke-dasharray="" stroke-dashoffset="0" font-family="Pixel" font-weight="normal" text-anchor="start" style="mix-blend-mode: normal"><tspan x="0" dy="0">A Game By:</tspan></text><text transform="translate(313.54976,307.98344) rotate(-0.69004) scale(0.51068,0.51068)" font-size="40" xml:space="preserve" fill="#ffffff" fill-rule="nonzero" stroke="none" stroke-width="1" stroke-linecap="butt" stroke-linejoin="miter" stroke-miterlimit="10" stroke-dasharray="" stroke-dashoffset="0" font-family="Pixel" font-weight="normal" text-anchor="start" style="mix-blend-mode: normal"><tspan x="0" dy="0">SaturnV-NASA</tspan></text></g></g></svg>